<svg height="2302" width="720" xmlns="http://www.w3.org/2000/svg">
<rect height="2302" fill="#555" width="720"></rect>
<text fill="#7f7" font-family="Courier New" font-size="12" xml:space="preserve">
<tspan x="10" y="26">2015-12-16 11:30:08 +0800</tspan>
<tspan x="10" y="42">cleanup</tspan>
<tspan x="10" y="58"></tspan>
<tspan x="10" y="74">2015-12-14 22:31:57 +0800</tspan>
<tspan x="10" y="90">- npm publish 2015.11.7</tspan>
<tspan x="10" y="106">- update to nedb @ 1.4.2 and inspected it to work standalone in both nodejs and browser</tspan>
<tspan x="10" y="122"></tspan>
<tspan x="10" y="138">2015-12-13 07:02:25 +0800</tspan>
<tspan x="10" y="154">- npm publish 2015.11.6</tspan>
<tspan x="10" y="170">- split swagger-ui into swagger-client and swagger-ui</tspan>
<tspan x="10" y="186">- uglify swagger-ui.rollup.js</tspan>
<tspan x="10" y="202"></tspan>
<tspan x="10" y="218">2015-12-11 21:03:09 +0800</tspan>
<tspan x="10" y="234">- npm publish 2015.11.5</tspan>
<tspan x="10" y="250">- full revert to swagger-ui 2.1.2</tspan>
<tspan x="10" y="266"></tspan>
<tspan x="10" y="282">2015-11-25 15:22:32 +0800</tspan>
<tspan x="10" y="298">- npm publish 2015.11.4</tspan>
<tspan x="10" y="314">- revert to swagger-ui 2.1.2</tspan>
<tspan x="10" y="330"></tspan>
<tspan x="10" y="346">2015-11-24 22:46:52 +0800</tspan>
<tspan x="10" y="362">- npm publish 2015.11.2</tspan>
<tspan x="10" y="378">- deploy assets to gh-pages</tspan>
<tspan x="10" y="394"></tspan>
<tspan x="10" y="410">2015-11-16 01:42:05 +0800</tspan>
<tspan x="10" y="426">- npm publish 2015.11.1</tspan>
<tspan x="10" y="442">- add nedb.min.js @ 0b564ba6</tspan>
<tspan x="10" y="458">- update to swagger-tools @ 0.9.9</tspan>
<tspan x="10" y="474">- update to swagger-ui @ 2.1.4</tspan>
<tspan x="10" y="490"></tspan>
<tspan x="10" y="506">2015-08-20 17:50:02 +0800</tspan>
<tspan x="10" y="522">- npm publish 2015.8.1</tspan>
<tspan x="10" y="538">- update swagger-ui@2.1.2</tspan>
<tspan x="10" y="554">- update swagger-tools@0.9.4</tspan>
<tspan x="10" y="570"></tspan>
<tspan x="10" y="586">2015-07-31 17:43:36 +0800</tspan>
<tspan x="10" y="602">- npm publish 2015.6.2</tspan>
<tspan x="10" y="618">- update swagger-tools</tspan>
<tspan x="10" y="634"></tspan>
<tspan x="10" y="650">2015-06-24 23:46:19 +0800</tspan>
<tspan x="10" y="666">- npm publish 2015.6.1</tspan>
<tspan x="10" y="682">- fix version breakage with latest npm install</tspan>
<tspan x="10" y="698"></tspan>
<tspan x="10" y="714">2015-06-19 23:33:35 +0800</tspan>
<tspan x="10" y="730">- npm publish 2.1.0-20150619a</tspan>
<tspan x="10" y="746">- update to swagger@v2.1.0</tspan>
<tspan x="10" y="762"></tspan>
<tspan x="10" y="778">2015-05-28 12:34:12 +0800</tspan>
<tspan x="10" y="794">- npm publish 2.1.5-M2-2015.5.28-b</tspan>
<tspan x="10" y="810">- add http://petstore.swagger.io/lib/swagger-oauth.js to swagger-ui.rollup.js</tspan>
<tspan x="10" y="826">- update to swagger@v2.1.5-M2</tspan>
<tspan x="10" y="842">- add swagger.json</tspan>
<tspan x="10" y="858"></tspan>
<tspan x="10" y="874">2015-05-06 20:57:35 +0800</tspan>
<tspan x="10" y="890">- npm publish 2.1.0-M2-2015.5.6-a</tspan>
<tspan x="10" y="906"></tspan>
<tspan x="10" y="922">2015-05-06 20:53:38 +0800</tspan>
<tspan x="10" y="938">update README.md</tspan>
<tspan x="10" y="954"></tspan>
<tspan x="10" y="970">2015-05-06 20:34:16 +0800</tspan>
<tspan x="10" y="986">update README.md</tspan>
<tspan x="10" y="1002"></tspan>
<tspan x="10" y="1018">2015-05-05 21:52:02 +0800</tspan>
<tspan x="10" y="1034">- add Function.prototype.bind polyfill to swagger-ui.rollup.js</tspan>
<tspan x="10" y="1050"></tspan>
<tspan x="10" y="1066">2015-05-02 01:08:42 +0800</tspan>
<tspan x="10" y="1082">'update comments'</tspan>
<tspan x="10" y="1098"></tspan>
<tspan x="10" y="1114">2015-04-23 14:00:42 +0800</tspan>
<tspan x="10" y="1130">npm publish 2015.4.23-b</tspan>
<tspan x="10" y="1146"></tspan>
<tspan x="10" y="1162">2015-04-20 10:32:34 +0800</tspan>
<tspan x="10" y="1178">re-arrange rolled-up files in swagger-ui.rollup.js to make it easier to integrate into node env</tspan>
<tspan x="10" y="1194"></tspan>
<tspan x="10" y="1210">2015-04-19 14:49:54 +0800</tspan>
<tspan x="10" y="1226">npm publish 2.1.0-M2-2015-04-19-a</tspan>
<tspan x="10" y="1242"></tspan>
<tspan x="10" y="1258">2015-04-19 14:15:07 +0800</tspan>
<tspan x="10" y="1274">update to swagger 2.1.0-M2</tspan>
<tspan x="10" y="1290"></tspan>
<tspan x="10" y="1306">2015-04-19 13:18:07 +0800</tspan>
<tspan x="10" y="1322">update dependencies</tspan>
<tspan x="10" y="1338"></tspan>
<tspan x="10" y="1354">2015-03-29 00:57:57 +0800</tspan>
<tspan x="10" y="1370">npm publish 2.1.8-M1-2015-03-29-a</tspan>
<tspan x="10" y="1386"></tspan>
<tspan x="10" y="1402">2015-03-29 00:41:28 +0800</tspan>
<tspan x="10" y="1418">fix screen-capture</tspan>
<tspan x="10" y="1434"></tspan>
<tspan x="10" y="1450">2015-03-29 00:06:11 +0800</tspan>
<tspan x="10" y="1466">fix build</tspan>
<tspan x="10" y="1482"></tspan>
<tspan x="10" y="1498">2015-03-28 23:25:16 +0800</tspan>
<tspan x="10" y="1514">update build</tspan>
<tspan x="10" y="1530"></tspan>
<tspan x="10" y="1546">2015-03-28 22:40:49 +0800</tspan>
<tspan x="10" y="1562">testing build</tspan>
<tspan x="10" y="1578"></tspan>
<tspan x="10" y="1594">2015-03-26 03:37:40 +0800</tspan>
<tspan x="10" y="1610">add swagger-tools-standalone.js</tspan>
<tspan x="10" y="1626"></tspan>
<tspan x="10" y="1642">2015-03-26 03:07:17 +0800</tspan>
<tspan x="10" y="1658">update README.md</tspan>
<tspan x="10" y="1674"></tspan>
<tspan x="10" y="1690">2015-03-26 02:56:51 +0800</tspan>
<tspan x="10" y="1706">add .travis.yml</tspan>
<tspan x="10" y="1722"></tspan>
<tspan x="10" y="1738">2015-03-26 02:37:53 +0800</tspan>
<tspan x="10" y="1754">add swagger-tools-standalone-min.js</tspan>
<tspan x="10" y="1770"></tspan>
<tspan x="10" y="1786">2015-03-12 12:39:48 +0800</tspan>
<tspan x="10" y="1802">npm publish 2.1.8-M1-2015-03-12-c - fix screen-capture bug on npmjs.com</tspan>
<tspan x="10" y="1818"></tspan>
<tspan x="10" y="1834">2015-03-12 12:34:09 +0800</tspan>
<tspan x="10" y="1850">npm publish 2.1.8-M1-2015-03-12-b - add screen-capture</tspan>
<tspan x="10" y="1866"></tspan>
<tspan x="10" y="1882">2015-03-12 10:34:36 +0800</tspan>
<tspan x="10" y="1898">npm publish 2.1.8-M1-2015-03-12-a</tspan>
<tspan x="10" y="1914"></tspan>
<tspan x="10" y="1930">2015-03-12 09:54:51 +0800</tspan>
<tspan x="10" y="1946">add "swagger-ui." prefix to all assets</tspan>
<tspan x="10" y="1962"></tspan>
<tspan x="10" y="1978">2015-03-11 17:02:22 +0800</tspan>
<tspan x="10" y="1994">npm publish 2.1.8-M1-2015-03-11-b</tspan>
<tspan x="10" y="2010"></tspan>
<tspan x="10" y="2026">2015-03-11 16:32:47 +0800</tspan>
<tspan x="10" y="2042">Update README.md</tspan>
<tspan x="10" y="2058">2015-03-11 16:14:06 +0800</tspan>
<tspan x="10" y="2074">- npm publish 2.1.8-M1-2015-03-11-a</tspan>
<tspan x="10" y="2090">- update to swagger-ui v2.1.8-M1</tspan>
<tspan x="10" y="2106"></tspan>
<tspan x="10" y="2122">2015-03-11 15:14:33 +0800</tspan>
<tspan x="10" y="2138">rollup files after http://petstore.swagger.io/</tspan>
<tspan x="10" y="2154"></tspan>
<tspan x="10" y="2170">2014-11-23 13:34:43 +0800</tspan>
<tspan x="10" y="2186">add /index.js</tspan>
<tspan x="10" y="2202"></tspan>
<tspan x="10" y="2218">2014-11-22 15:30:08 +0800</tspan>
<tspan x="10" y="2234">add /dist directory</tspan>
<tspan x="10" y="2250"></tspan>
<tspan x="10" y="2266">2014-03-26 02:31:50 +0700</tspan>
<tspan x="10" y="2282">add blank README.md</tspan>
</text>
</svg>
