<svg height="2110" width="720" xmlns="http://www.w3.org/2000/svg">
<rect height="2110" fill="#555" width="720"></rect>
<text fill="#7f7" font-family="Courier New" font-size="12" xml:space="preserve">
<tspan x="10" y="26">2015-12-11 21:03:09 +0800</tspan>
<tspan x="10" y="42">- npm publish 2015.11.5</tspan>
<tspan x="10" y="58">- full revert to swagger-ui 2.1.2</tspan>
<tspan x="10" y="74"></tspan>
<tspan x="10" y="90">2015-11-25 15:22:32 +0800</tspan>
<tspan x="10" y="106">- npm publish 2015.11.4</tspan>
<tspan x="10" y="122">- revert to swagger-ui 2.1.2</tspan>
<tspan x="10" y="138"></tspan>
<tspan x="10" y="154">2015-11-24 22:46:52 +0800</tspan>
<tspan x="10" y="170">- npm publish 2015.11.2</tspan>
<tspan x="10" y="186">- deploy assets to gh-pages</tspan>
<tspan x="10" y="202"></tspan>
<tspan x="10" y="218">2015-11-16 01:42:05 +0800</tspan>
<tspan x="10" y="234">- npm publish 2015.11.1</tspan>
<tspan x="10" y="250">- add nedb.min.js @ 0b564ba6</tspan>
<tspan x="10" y="266">- update to swagger-tools @ 0.9.9</tspan>
<tspan x="10" y="282">- update to swagger-ui @ 2.1.4</tspan>
<tspan x="10" y="298"></tspan>
<tspan x="10" y="314">2015-08-20 17:50:02 +0800</tspan>
<tspan x="10" y="330">- npm publish 2015.8.1</tspan>
<tspan x="10" y="346">- update swagger-ui@2.1.2</tspan>
<tspan x="10" y="362">- update swagger-tools@0.9.4</tspan>
<tspan x="10" y="378"></tspan>
<tspan x="10" y="394">2015-07-31 17:43:36 +0800</tspan>
<tspan x="10" y="410">- npm publish 2015.6.2</tspan>
<tspan x="10" y="426">- update swagger-tools</tspan>
<tspan x="10" y="442"></tspan>
<tspan x="10" y="458">2015-06-24 23:46:19 +0800</tspan>
<tspan x="10" y="474">- npm publish 2015.6.1</tspan>
<tspan x="10" y="490">- fix version breakage with latest npm install</tspan>
<tspan x="10" y="506"></tspan>
<tspan x="10" y="522">2015-06-19 23:33:35 +0800</tspan>
<tspan x="10" y="538">- npm publish 2.1.0-20150619a</tspan>
<tspan x="10" y="554">- update to swagger@v2.1.0</tspan>
<tspan x="10" y="570"></tspan>
<tspan x="10" y="586">2015-05-28 12:34:12 +0800</tspan>
<tspan x="10" y="602">- npm publish 2.1.5-M2-2015.5.28-b</tspan>
<tspan x="10" y="618">- add http://petstore.swagger.io/lib/swagger-oauth.js to swagger-ui.rollup.js</tspan>
<tspan x="10" y="634">- update to swagger@v2.1.5-M2</tspan>
<tspan x="10" y="650">- add swagger.json</tspan>
<tspan x="10" y="666"></tspan>
<tspan x="10" y="682">2015-05-06 20:57:35 +0800</tspan>
<tspan x="10" y="698">- npm publish 2.1.0-M2-2015.5.6-a</tspan>
<tspan x="10" y="714"></tspan>
<tspan x="10" y="730">2015-05-06 20:53:38 +0800</tspan>
<tspan x="10" y="746">update README.md</tspan>
<tspan x="10" y="762"></tspan>
<tspan x="10" y="778">2015-05-06 20:34:16 +0800</tspan>
<tspan x="10" y="794">update README.md</tspan>
<tspan x="10" y="810"></tspan>
<tspan x="10" y="826">2015-05-05 21:52:02 +0800</tspan>
<tspan x="10" y="842">- add Function.prototype.bind polyfill to swagger-ui.rollup.js</tspan>
<tspan x="10" y="858"></tspan>
<tspan x="10" y="874">2015-05-02 01:08:42 +0800</tspan>
<tspan x="10" y="890">'update comments'</tspan>
<tspan x="10" y="906"></tspan>
<tspan x="10" y="922">2015-04-23 14:00:42 +0800</tspan>
<tspan x="10" y="938">npm publish 2015.4.23-b</tspan>
<tspan x="10" y="954"></tspan>
<tspan x="10" y="970">2015-04-20 10:32:34 +0800</tspan>
<tspan x="10" y="986">re-arrange rolled-up files in swagger-ui.rollup.js to make it easier to integrate into node env</tspan>
<tspan x="10" y="1002"></tspan>
<tspan x="10" y="1018">2015-04-19 14:49:54 +0800</tspan>
<tspan x="10" y="1034">npm publish 2.1.0-M2-2015-04-19-a</tspan>
<tspan x="10" y="1050"></tspan>
<tspan x="10" y="1066">2015-04-19 14:15:07 +0800</tspan>
<tspan x="10" y="1082">update to swagger 2.1.0-M2</tspan>
<tspan x="10" y="1098"></tspan>
<tspan x="10" y="1114">2015-04-19 13:18:07 +0800</tspan>
<tspan x="10" y="1130">update dependencies</tspan>
<tspan x="10" y="1146"></tspan>
<tspan x="10" y="1162">2015-03-29 00:57:57 +0800</tspan>
<tspan x="10" y="1178">npm publish 2.1.8-M1-2015-03-29-a</tspan>
<tspan x="10" y="1194"></tspan>
<tspan x="10" y="1210">2015-03-29 00:41:28 +0800</tspan>
<tspan x="10" y="1226">fix screen-capture</tspan>
<tspan x="10" y="1242"></tspan>
<tspan x="10" y="1258">2015-03-29 00:06:11 +0800</tspan>
<tspan x="10" y="1274">fix build</tspan>
<tspan x="10" y="1290"></tspan>
<tspan x="10" y="1306">2015-03-28 23:25:16 +0800</tspan>
<tspan x="10" y="1322">update build</tspan>
<tspan x="10" y="1338"></tspan>
<tspan x="10" y="1354">2015-03-28 22:40:49 +0800</tspan>
<tspan x="10" y="1370">testing build</tspan>
<tspan x="10" y="1386"></tspan>
<tspan x="10" y="1402">2015-03-26 03:37:40 +0800</tspan>
<tspan x="10" y="1418">add swagger-tools-standalone.js</tspan>
<tspan x="10" y="1434"></tspan>
<tspan x="10" y="1450">2015-03-26 03:07:17 +0800</tspan>
<tspan x="10" y="1466">update README.md</tspan>
<tspan x="10" y="1482"></tspan>
<tspan x="10" y="1498">2015-03-26 02:56:51 +0800</tspan>
<tspan x="10" y="1514">add .travis.yml</tspan>
<tspan x="10" y="1530"></tspan>
<tspan x="10" y="1546">2015-03-26 02:37:53 +0800</tspan>
<tspan x="10" y="1562">add swagger-tools-standalone-min.js</tspan>
<tspan x="10" y="1578"></tspan>
<tspan x="10" y="1594">2015-03-12 12:39:48 +0800</tspan>
<tspan x="10" y="1610">npm publish 2.1.8-M1-2015-03-12-c - fix screen-capture bug on npmjs.com</tspan>
<tspan x="10" y="1626"></tspan>
<tspan x="10" y="1642">2015-03-12 12:34:09 +0800</tspan>
<tspan x="10" y="1658">npm publish 2.1.8-M1-2015-03-12-b - add screen-capture</tspan>
<tspan x="10" y="1674"></tspan>
<tspan x="10" y="1690">2015-03-12 10:34:36 +0800</tspan>
<tspan x="10" y="1706">npm publish 2.1.8-M1-2015-03-12-a</tspan>
<tspan x="10" y="1722"></tspan>
<tspan x="10" y="1738">2015-03-12 09:54:51 +0800</tspan>
<tspan x="10" y="1754">add "swagger-ui." prefix to all assets</tspan>
<tspan x="10" y="1770"></tspan>
<tspan x="10" y="1786">2015-03-11 17:02:22 +0800</tspan>
<tspan x="10" y="1802">npm publish 2.1.8-M1-2015-03-11-b</tspan>
<tspan x="10" y="1818"></tspan>
<tspan x="10" y="1834">2015-03-11 16:32:47 +0800</tspan>
<tspan x="10" y="1850">Update README.md</tspan>
<tspan x="10" y="1866">2015-03-11 16:14:06 +0800</tspan>
<tspan x="10" y="1882">- npm publish 2.1.8-M1-2015-03-11-a</tspan>
<tspan x="10" y="1898">- update to swagger-ui v2.1.8-M1</tspan>
<tspan x="10" y="1914"></tspan>
<tspan x="10" y="1930">2015-03-11 15:14:33 +0800</tspan>
<tspan x="10" y="1946">rollup files after http://petstore.swagger.io/</tspan>
<tspan x="10" y="1962"></tspan>
<tspan x="10" y="1978">2014-11-23 13:34:43 +0800</tspan>
<tspan x="10" y="1994">add /index.js</tspan>
<tspan x="10" y="2010"></tspan>
<tspan x="10" y="2026">2014-11-22 15:30:08 +0800</tspan>
<tspan x="10" y="2042">add /dist directory</tspan>
<tspan x="10" y="2058"></tspan>
<tspan x="10" y="2074">2014-03-26 02:31:50 +0700</tspan>
<tspan x="10" y="2090">add blank README.md</tspan>
</text>
</svg>
