<svg height="558" width="720" xmlns="http://www.w3.org/2000/svg">
<rect height="558" fill="#555" width="720"></rect>
<text fill="#7f7" font-family="Courier New" font-size="12" xml:space="preserve">
<tspan x="10" y="26">        49 bytes    2015-05-28 12:34:12 +0800    .gitignore</tspan>
<tspan x="10" y="42"></tspan>
<tspan x="10" y="58">      4131 bytes    2015-12-11 21:03:09 +0800    .travis.yml</tspan>
<tspan x="10" y="74"></tspan>
<tspan x="10" y="90">      6026 bytes    2015-12-14 18:21:10 +0800    README.md</tspan>
<tspan x="10" y="106"></tspan>
<tspan x="10" y="122">        82 bytes    2015-03-12 09:54:51 +0800    index.js</tspan>
<tspan x="10" y="138"></tspan>
<tspan x="10" y="154">    103386 bytes    2015-12-13 18:39:54 +0800    nedb.min.js</tspan>
<tspan x="10" y="170"></tspan>
<tspan x="10" y="186">       865 bytes    2015-12-14 18:21:10 +0800    package.json</tspan>
<tspan x="10" y="202"></tspan>
<tspan x="10" y="218">    348090 bytes    2015-11-16 01:42:05 +0800    swagger-tools-standalone-min.js</tspan>
<tspan x="10" y="234"></tspan>
<tspan x="10" y="250">      5763 bytes    2015-03-12 09:54:51 +0800    swagger-ui.explorer_icons.png</tspan>
<tspan x="10" y="266"></tspan>
<tspan x="10" y="282">       645 bytes    2015-08-20 17:50:02 +0800    swagger-ui.favicon-16x16.png</tspan>
<tspan x="10" y="298"></tspan>
<tspan x="10" y="314">      1654 bytes    2015-08-20 17:50:02 +0800    swagger-ui.favicon-32x32.png</tspan>
<tspan x="10" y="330"></tspan>
<tspan x="10" y="346">      5049 bytes    2015-12-13 07:02:25 +0800    swagger-ui.html</tspan>
<tspan x="10" y="362"></tspan>
<tspan x="10" y="378">       770 bytes    2015-03-12 09:54:51 +0800    swagger-ui.logo_small.png</tspan>
<tspan x="10" y="394"></tspan>
<tspan x="10" y="410">     45168 bytes    2015-12-11 21:03:09 +0800    swagger-ui.rollup.css</tspan>
<tspan x="10" y="426"></tspan>
<tspan x="10" y="442">    663859 bytes    2015-12-13 07:02:25 +0800    swagger-ui.rollup.js</tspan>
<tspan x="10" y="458"></tspan>
<tspan x="10" y="474">      9257 bytes    2015-03-12 09:54:51 +0800    swagger-ui.throbber.gif</tspan>
<tspan x="10" y="490"></tspan>
<tspan x="10" y="506">     34287 bytes    2015-06-19 23:33:35 +0800    swagger.json</tspan>
<tspan x="10" y="522"></tspan>
<tspan x="10" y="538">        33 bytes    2015-12-11 21:03:09 +0800    test.js</tspan>
</text>
</svg>
